HIERARCHY
ROOT Hips
{
	OFFSET 0.000000 0.000000 0.000000
	CHANNELS 6 Xposition Yposition Zposition Xrotation Yrotation Zrotation
	JOINT LeftUpLeg_virtual
	{
		OFFSET 0.000000 0.000000 0.000000
		CHANNELS 3 Xrotation Yrotation Zrotation
		JOINT LeftUpLeg
		{
			OFFSET 11.394100 -6.187798 -0.413800
			CHANNELS 3 Xrotation Yrotation Zrotation
			JOINT LeftLeg
			{
				OFFSET 0.430247 -32.302673 3.732800
				CHANNELS 3 Xrotation Yrotation Zrotation
				JOINT LeftFoot
				{
					OFFSET -0.430247 -48.264931 -6.423300
					CHANNELS 3 Xrotation Yrotation Zrotation
					JOINT LeftToeBase
					{
						OFFSET 4.230900 -16.068199 23.438400
						CHANNELS 3 Xrotation Yrotation Zrotation
						JOINT LeftToe_End
						{
							OFFSET 4.510700 0.695400 19.974600
							CHANNELS 3 Xrotation Yrotation Zrotation
							End Site
							{
								OFFSET 0 0 0
							}
						}
					}
				}
			}
		}
	}
	JOINT RightUpLeg_virtual
	{
		OFFSET 0.000000 0.000000 0.000000
		CHANNELS 3 Xrotation Yrotation Zrotation
		JOINT RightUpLeg
		{
			OFFSET -11.333700 -6.187798 -0.413800
			CHANNELS 3 Xrotation Yrotation Zrotation
			JOINT RightLeg
			{
				OFFSET -0.430392 -32.302628 3.733000
				CHANNELS 3 Xrotation Yrotation Zrotation
				JOINT RightFoot
				{
					OFFSET 0.430392 -48.264973 -6.423500
					CHANNELS 3 Xrotation Yrotation Zrotation
					JOINT RightToeBase
					{
						OFFSET -4.230900 -16.068199 23.438400
						CHANNELS 3 Xrotation Yrotation Zrotation
						JOINT RightToe_End
						{
							OFFSET -4.510700 0.695400 19.974600
							CHANNELS 3 Xrotation Yrotation Zrotation
							End Site
							{
								OFFSET 0 0 0
							}
						}
					}
				}
			}
		}
	}
	JOINT Spine_virtual
	{
		OFFSET 0.000000 0.000000 0.000000
		CHANNELS 3 Xrotation Yrotation Zrotation
		JOINT Spine
		{
			OFFSET -0.002400 12.777504 0.315300
			CHANNELS 3 Xrotation Yrotation Zrotation
			JOINT Spine1
			{
				OFFSET -0.002067 5.816869 0.032633
				CHANNELS 3 Xrotation Yrotation Zrotation
				JOINT Spine1_split
				{
					OFFSET -0.002067 5.816869 0.032633
					CHANNELS 3 Xrotation Yrotation Zrotation
					JOINT Spine2
					{
						OFFSET -0.002067 5.816869 0.032633
						CHANNELS 3 Xrotation Yrotation Zrotation
						JOINT Neck_virtual
						{
							OFFSET 0.000000 0.000000 0.000000
							CHANNELS 3 Xrotation Yrotation Zrotation
							JOINT Neck
							{
								OFFSET -0.003700 21.199493 -0.826900
								CHANNELS 3 Xrotation Yrotation Zrotation
								JOINT Head
								{
									OFFSET 0.000000 20.442200 4.834800
									CHANNELS 3 Xrotation Yrotation Zrotation
									JOINT HeadTop_End
									{
										OFFSET 0.000000 34.668396 4.968400
										CHANNELS 3 Xrotation Yrotation Zrotation
										End Site
										{
											OFFSET 0 0 0
										}
									}
								}
							}
						}
						JOINT LeftShoulder_virtual
						{
							OFFSET 0.000000 0.000000 0.000000
							CHANNELS 3 Xrotation Yrotation Zrotation
							JOINT LeftShoulder
							{
								OFFSET 3.288150 8.794197 -1.372250
								CHANNELS 3 Xrotation Yrotation Zrotation
								JOINT LeftShoulder_split
								{
									OFFSET 3.288150 8.794197 -1.372250
									CHANNELS 3 Xrotation Yrotation Zrotation
									JOINT LeftArm
									{
										OFFSET 11.953299 -2.279007 -0.146200
										CHANNELS 3 Xrotation Yrotation Zrotation
										JOINT LeftForeArm
										{
											OFFSET 18.448900 0.000000 0.000000
											CHANNELS 3 Xrotation Yrotation Zrotation
											JOINT LeftHand
											{
												OFFSET 29.527798 0.000000 0.000000
												CHANNELS 3 Xrotation Yrotation Zrotation
												End Site
												{
													OFFSET 0 0 0
												}
											}
										}
									}
								}
							}
						}
						JOINT RightShoulder_virtual
						{
							OFFSET 0.000000 0.000000 0.000000
							CHANNELS 3 Xrotation Yrotation Zrotation
							JOINT RightShoulder
							{
								OFFSET -3.249400 8.794197 -1.372250
								CHANNELS 3 Xrotation Yrotation Zrotation
								JOINT RightShoulder_split
								{
									OFFSET -3.249400 8.794197 -1.372250
									CHANNELS 3 Xrotation Yrotation Zrotation
									JOINT RightArm
									{
										OFFSET -11.953299 -2.279007 -0.146200
										CHANNELS 3 Xrotation Yrotation Zrotation
										JOINT RightForeArm
										{
											OFFSET -18.448900 0.000000 0.000000
											CHANNELS 3 Xrotation Yrotation Zrotation
											JOINT RightHand
											{
												OFFSET -29.527802 0.000000 0.000000
												CHANNELS 3 Xrotation Yrotation Zrotation
												End Site
												{
													OFFSET 0 0 0
												}
											}
										}
									}
								}
							}
						}
					}
				}
			}
		}
	}
}
MOTION
Frames: 5
Frame Time: 0.03333333
-22.259829 81.753937 -8.488407 0.000000 0.000000 0.000000 35.457134 7.467505 -4.388490 -69.685886 -19.743256 22.387400 38.754866 5.884938 -1.810977 10.519238 7.502982 -28.319691 -1.476735 0.182325 -0.619114 0.000000 0.000000 0.000000 35.880592 6.683850 -4.445148 -68.222976 -0.786396 -24.751506 50.388614 0.525627 -0.647003 -13.994101 -6.336795 23.493588 1.693463 0.751453 0.466037 0.000000 0.000000 0.000000 36.236025 5.173611 -4.694304 9.030340 1.554405 0.909167 11.694143 1.878800 1.279413 0.933864 0.329781 0.170670 0.000000 0.000000 0.000000 10.333809 2.009795 1.058185 -0.634810 -1.867104 -2.449406 -30.270616 -11.171490 3.485676 0.000000 0.000000 0.000000 10.730506 1.883459 0.802329 0.748205 -20.919512 -10.184627 0.906913 0.495059 -2.611051 14.822238 -10.959871 -49.391540 -3.235712 -72.257616 -3.234194 0.000000 0.000000 0.000000 10.498344 2.198011 1.466457 2.794838 26.458032 7.855183 0.474560 3.162306 -0.099147 -4.827249 41.696748 18.129813 -0.972662 20.045722 1.323258 0.000000 0.000000 0.000000 
-21.437044 80.644646 -8.441166 0.000000 0.000000 0.000000 38.147129 7.505257 -3.984720 -74.953021 -18.612911 21.518151 41.498436 4.640146 -1.781944 9.462390 6.196808 -28.254867 -1.693267 0.026341 -0.151129 0.000000 0.000000 0.000000 38.666032 6.232265 -3.802129 -71.826078 0.452001 -26.073957 51.456241 1.485217 -0.675243 -14.856553 -6.572277 24.167212 1.213944 0.862208 0.321088 0.000000 0.000000 0.000000 39.134935 5.099756 -4.169686 9.352203 1.864349 0.933277 11.954973 2.040926 1.311403 0.942401 0.302734 0.192638 0.000000 0.000000 0.000000 10.563475 2.193133 1.036229 -0.748663 -2.046145 -2.629256 -32.083075 -12.028677 2.692913 0.000000 0.000000 0.000000 11.022444 2.044082 0.805436 0.772744 -21.561890 -9.798052 0.873055 0.353976 -2.792234 14.709740 -10.828117 -49.046004 -3.955019 -74.452019 -4.006067 0.000000 0.000000 0.000000 10.686356 2.377346 1.518758 2.778601 26.858370 8.026052 0.687729 3.097032 -0.198058 -7.335114 41.614263 15.082444 -1.272647 20.571819 1.427538 0.000000 0.000000 0.000000 
-20.611858 79.539955 -8.281578 0.000000 0.000000 0.000000 40.742509 7.873164 -3.474757 -80.254402 -17.269302 20.766874 44.271299 3.390194 -1.861602 8.308199 4.759902 -27.671729 -1.757190 -0.121924 -0.004299 0.000000 0.000000 0.000000 41.301925 6.132391 -3.063872 -75.235217 1.939612 -27.703990 52.947883 2.513505 -0.567943 -15.676331 -6.767188 25.020810 0.662559 0.942270 0.234393 0.000000 0.000000 0.000000 41.942682 5.250696 -3.487418 9.664250 2.151919 0.959524 12.131355 2.206886 1.305181 1.013316 0.242199 0.181436 0.000000 0.000000 0.000000 10.718757 2.386943 0.986525 -0.840133 -2.252527 -2.767280 -33.723195 -12.971468 1.856357 0.000000 0.000000 0.000000 11.224240 2.223943 0.800045 0.830332 -22.187574 -9.312065 0.983877 0.109819 -3.020089 15.304430 -11.664120 -48.830539 -4.570051 -76.409627 -4.700406 0.000000 0.000000 0.000000 10.802803 2.552821 1.539397 2.768981 26.995010 8.297217 0.903158 3.007011 -0.235492 -10.852056 41.325616 12.738906 -1.531519 21.185140 1.409080 0.000000 0.000000 0.000000 
-19.805708 78.293327 -7.980064 0.000000 0.000000 0.000000 43.187283 8.581132 -2.853613 -85.387036 -15.851650 20.135007 47.022222 2.192672 -2.074436 7.186641 3.406576 -26.677600 -1.806875 -0.245065 -0.129670 0.000000 0.000000 0.000000 43.719761 6.504393 -2.264511 -78.317811 3.748226 -29.612685 54.910350 3.502694 -0.337422 -16.900024 -7.095366 25.701085 0.586743 1.006552 0.261969 0.000000 0.000000 0.000000 44.545124 5.702116 -2.658179 9.971157 2.407866 0.957798 12.284024 2.401478 1.281001 1.031081 0.199219 0.191912 0.000000 0.000000 0.000000 10.874001 2.607970 0.933511 -0.996377 -2.483537 -2.911814 -35.279327 -13.948135 0.952657 0.000000 0.000000 0.000000 11.400404 2.442797 0.805645 0.917637 -22.699893 -8.762027 1.181125 -0.096757 -3.210743 16.158348 -13.221820 -48.722499 -5.065591 -77.888008 -5.271312 0.000000 0.000000 0.000000 10.911140 2.738813 1.534397 2.804739 26.961072 8.552634 1.142543 2.867602 -0.208769 -14.582988 40.894672 10.626358 -1.711000 22.102446 1.297378 0.000000 0.000000 0.000000 
-19.086473 76.793320 -7.589039 0.000000 0.000000 0.000000 45.371225 9.621887 -2.134999 -90.144987 -14.539069 19.543015 49.805193 1.038170 -2.374627 5.961530 2.338774 -25.449462 -1.821869 -0.353644 -0.395595 0.000000 0.000000 0.000000 45.916196 7.407200 -1.452918 -80.934955 5.890113 -31.687532 57.485413 4.343826 0.001875 -18.762451 -7.683073 25.942573 1.029184 1.070096 0.429920 0.000000 0.000000 0.000000 46.864855 6.428368 -1.724635 10.292631 2.636376 0.898451 12.480366 2.653318 1.262020 0.955042 0.164152 0.278841 0.000000 0.000000 0.000000 11.108354 2.878997 0.895468 -1.360099 -2.753218 -3.110193 -36.870604 -14.887784 -0.033641 0.000000 0.000000 0.000000 11.623475 2.712879 0.838246 1.039734 -23.012753 -8.173205 1.356671 -0.229462 -3.288699 16.811990 -15.124880 -48.692333 -5.609085 -78.753393 -5.847459 0.000000 0.000000 0.000000 11.096520 2.959326 1.524904 2.905193 26.896643 8.680417 1.376696 2.729168 -0.078703 -17.727701 40.490823 8.167415 -1.758126 23.217819 1.151472 0.000000 0.000000 0.000000 
